#!OML:ASF E:/inclinewalkrobotboard/Project1/Captureday1/Session1/subject1.ASF
:FULLY-SPECIFIED
:DEGREES
263
root 0 0 0 17.474197534229294 -4.261059040622106 -1.459217808752733
lowerback 21.28388638013449 -3.2536379273047755 -1.1550269018344042
upperback -0.8636465962882518 -4.8047236053841225 3.8831975107173653
thorax -12.670624538832318 -2.1400833341681684 5.260433824046316
lowerneck -9.611401558500242 9.334867000270652 18.6114059770418
upperneck 21.47864648606714 10.932589707907411 -8.273033815325572
head 9.823012859758295 5.924311136677702 -4.609372397632357
rclavicle 1.6657151995793508E-15 6.259858952005411E-15
rhumerus 28.690094941089644 19.756389114672587 -74.21018118464828
rradius 107.12589313630949
rwrist -40.46739789482092
rhand -24.451942978527207 -23.819982361099534
rfingers 7.125019999999995
rthumb 2.073934684642202 -54.2424953727131
lclavicle -2.7260366814738965E-15 6.492074959338901E-15
lhumerus 25.81398915469356 -35.0245838407621 73.18384158924013
lradius 141.79827997344762
lwrist 8.751954006806791
lhand -33.28199066144439 8.237449907009726
lfingers 7.1250199999999415
lthumb -6.45493589648321 38.69363084848196
rfemur -47.08332310777341 2.708993575165625 29.791844167176173
rtibia 44.334987528624424
rfoot -21.030376555550465 -3.9660831203618265
rtoes -44.46048975470272
lfemur -35.33843608174362 -23.054366508212894 -12.822822624442916
ltibia 10.26053369495746
lfoot -46.04613084612683 7.999795655438078
ltoes -33.794766785809344
264
root 0 0 0 17.455064301578506 -4.303429921924604 -1.457597579486079
lowerback 21.326815060385723 -3.253304860072607 -1.1693536016138633
upperback -0.8526767394780883 -4.8083826879094484 3.8671021055040207
thorax -12.68166126379154 -2.1420520130874667 5.250138517143924
lowerneck -9.61902721412761 9.354555969562526 18.625208898670234
upperneck 21.45267900454588 10.962547366759669 -8.285190925475813
head 9.82050906462504 5.9378499357663 -4.6121580542729514
rclavicle 1.5860518722430734E-15 6.3731391958302306E-15
rhumerus 28.850711120913456 18.969750868608592 -73.748231186968
rradius 105.69645703897996
rwrist -39.98222449356525
rhand -24.443415898734493 -23.995469314237432
rfingers 7.125019999999996
rthumb 2.08372640754628 -54.41754599758004
lclavicle -2.6874054899723497E-15 6.590979372107412E-15
lhumerus 25.837790376436267 -34.90146386038069 73.0909138916925
lradius 141.72305997253852
lwrist 8.70292712909037
lhand -33.2616049234685 8.222815894953158
lfingers 7.1250199999999415
lthumb -6.434812130825991 38.67754417465999
rfemur -47.6922446366486 2.8392238110261676 29.570684197429376
rtibia 44.53699367178699
rfoot -21.267287570582024 -3.968868315795019
rtoes -44.3324252235447
lfemur -34.95120033098782 -23.17020626241115 -12.937761537553792
ltibia 9.974344950120539
lfoot -46.008761451100874 8.004679072620858
ltoes -33.7088715117831
265
root 0 0 0 17.43811762187859 -4.344125146741222 -1.4536090761230556
lowerback 21.36749869270317 -3.2529687565135763 -1.1823238389560196
upperback -0.8419128115834695 -4.811557170326797 3.853076558199435
thorax -12.691791327562806 -2.143776008663057 5.241233958583809
lowerneck -9.626817254800999 9.370790438100338 18.635453511510697
upperneck 21.426652885651958 10.988051066363925 -8.297374153763167
head 9.817231879668608 5.948940788764706 -4.614873589523972
rclavicle 1.4661808428588934E-15 6.4309555403604155E-15
rhumerus 29.01738359290844 18.2036828142551 -73.30067117988584
rradius 104.31161769898918
rwrist -39.52624608043573
rhand -24.437051927757977 -24.158522402159356
rfingers 7.1250199999999975
rthumb 2.091293417612972 -54.580354270926804
lclavicle -2.695301764597582E-15 6.643326458080063E-15
lhumerus 25.857713634681893 -34.82581967094449 73.03011337325671
lradius 141.67835464600256
lwrist 8.669897189245017
lhand -33.251033973215684 8.212560777712893
lfingers 7.1250199999999415
lthumb -6.424280629620792 38.666473718254814
rfemur -48.34717078501381 2.9994441383114765 29.361853293680895
rtibia 44.75242483094111
rfoot -21.576156345808208 -3.961755065950179
rtoes -44.15138266665291
lfemur -34.86838388795216 -23.127806088010484 -13.040140771524138
ltibia 10.118948838799895
lfoot -45.90782417517518 7.90327447774113
ltoes -33.69125547014281
266
root 0 0 0 17.424529073842745 -4.379879804681254 -1.4481489535756809
lowerback 21.402292401593275 -3.2527607145819344 -1.1929589990596488
upperback -0.8324006827331827 -4.814164850879616 3.8421102430709295
thorax -12.700176546550086 -2.1451965964917905 5.234382351569716
lowerneck -9.63385054493986 9.382748257629585 18.641983483436878
upperneck 21.403230878234975 11.007572633437169 -8.308384603254794
head 9.813672928723312 5.957040202132934 -4.617281043716318
rclavicle 1.3206431870799658E-15 6.437332118456729E-15
rhumerus 29.174436483644254 17.513914565133234 -72.8985330645592
rradius 103.08779448837355
rwrist -39.135675636147646
rhand -24.43270429618827 -24.29910194287562
rfingers 7.125019999999998
rthumb 2.096692012484782 -54.72085016648772
lclavicle -2.7408104602133565E-15 6.652830523485398E-15
lhumerus 25.874177841046183 -34.79490126922137 72.99980089514473
lradius 141.6632359974256
lwrist 8.652354908776854
lhand -33.24984216071303 8.206310645999993
lfingers 7.1250199999999415
lthumb -6.422930154474436 38.66001989413579
rfemur -48.96585400990742 3.1641614515310685 29.184157449690034
rtibia 44.95574048137348
rfoot -21.906567958005823 -3.9476145786560863
rtoes -43.94797411715762
lfemur -35.046340810441464 -22.956027333732514 -13.120988037918973
ltibia 10.606011091360621
lfoot -45.76189352861852 7.724860958114669
ltoes -33.735200781584375
